<svg width="35" height="35" viewBox="0 0 35 35" fill="none" xmlns="http://www.w3.org/2000/svg">
<path d="M17.5005 21.7729C16.6554 21.7729 15.8292 21.5223 15.1266 21.0528C14.4239 20.5833 13.8762 19.9159 13.5528 19.1351C13.2294 18.3544 13.1448 17.4952 13.3096 16.6664C13.4745 15.8375 13.8815 15.0761 14.479 14.4786C15.0766 13.881 15.838 13.474 16.6669 13.3092C17.4957 13.1443 18.3549 13.2289 19.1356 13.5523C19.9164 13.8757 20.5837 14.4234 21.0533 15.1261C21.5228 15.8287 21.7734 16.6549 21.7734 17.5C21.7734 18.6332 21.3232 19.7201 20.5219 20.5214C19.7205 21.3227 18.6337 21.7729 17.5005 21.7729ZM17.5005 15.4146C17.088 15.4146 16.6848 15.5369 16.3419 15.766C15.9989 15.9952 15.7316 16.3209 15.5738 16.7019C15.4159 17.083 15.3746 17.5023 15.4551 17.9068C15.5356 18.3113 15.7342 18.6829 16.0258 18.9746C16.3175 19.2662 16.6891 19.4649 17.0936 19.5453C17.4981 19.6258 17.9175 19.5845 18.2985 19.4266C18.6796 19.2688 19.0053 19.0015 19.2344 18.6586C19.4636 18.3156 19.5859 17.9124 19.5859 17.5C19.5859 16.9469 19.3662 16.4164 18.9751 16.0254C18.584 15.6343 18.0535 15.4146 17.5005 15.4146Z" fill="black"/>
<path d="M17.5877 30.2603C17.1613 30.2584 16.7395 30.1723 16.3465 30.0069C15.9535 29.8416 15.597 29.6002 15.2975 29.2966C14.9981 28.9931 14.7615 28.6334 14.6014 28.2382C14.4414 27.843 14.361 27.42 14.3648 26.9937C14.3591 26.8621 14.3163 26.7349 14.2415 26.6265C14.1667 26.5182 14.0629 26.4332 13.9419 26.3812C13.8081 26.3197 13.659 26.2994 13.5136 26.3228C13.3682 26.3462 13.2331 26.4122 13.1252 26.5124C12.5197 27.1133 11.7032 27.4535 10.8502 27.4603C9.99183 27.4658 9.16516 27.1362 8.54606 26.5416C8.24533 26.2409 8.00678 25.884 7.84402 25.4911C7.68127 25.0983 7.59749 24.6772 7.59749 24.252C7.59749 23.8268 7.68127 23.4057 7.84402 23.0129C8.00678 22.62 8.24533 22.2631 8.54606 21.9624C8.64891 21.8687 8.72278 21.7475 8.75896 21.6131C8.79514 21.4787 8.79211 21.3368 8.75023 21.2041C8.67917 21.081 8.57722 20.9786 8.45445 20.907C8.33168 20.8354 8.19235 20.797 8.05023 20.7958C7.19218 20.7924 6.36896 20.456 5.75412 19.8575C5.13928 19.2589 4.78085 18.4451 4.75439 17.5874C4.75631 17.1623 4.84194 16.7416 5.00641 16.3496C5.17087 15.9575 5.41095 15.6017 5.71294 15.3024C6.01492 15.0031 6.3729 14.7663 6.76642 14.6054C7.15995 14.4444 7.58132 14.3626 8.00648 14.3645C8.13801 14.3587 8.26525 14.316 8.3736 14.2412C8.48194 14.1664 8.56699 14.0625 8.61898 13.9416C8.6804 13.8078 8.70072 13.6587 8.67735 13.5133C8.65399 13.3679 8.58799 13.2328 8.48773 13.1249C7.88684 12.5194 7.54662 11.7029 7.53981 10.8499C7.53235 10.4241 7.60975 10.001 7.76749 9.60545C7.92523 9.20985 8.16015 8.84962 8.45856 8.54575C8.7592 8.24502 9.11614 8.00647 9.50899 7.84371C9.90185 7.68096 10.3229 7.59718 10.7481 7.59718C11.1734 7.59718 11.5944 7.68096 11.9873 7.84371C12.3801 8.00647 12.7371 8.24502 13.0377 8.54575C13.1427 8.64565 13.2716 8.71689 13.4121 8.75264C13.5525 8.78839 13.6998 8.78746 13.8398 8.74992C13.9674 8.68003 14.0756 8.57942 14.1545 8.45719C14.2335 8.33497 14.2807 8.19498 14.2919 8.04992C14.2915 7.18935 14.6262 6.36244 15.2251 5.74447C15.824 5.1265 16.6401 4.76604 17.5002 4.7395C17.9254 4.74331 18.3456 4.83084 18.737 4.99707C19.1283 5.1633 19.4831 5.40499 19.781 5.70833C20.0789 6.01167 20.3142 6.37073 20.4733 6.76499C20.6325 7.15926 20.7124 7.58101 20.7086 8.00617C20.7141 8.13961 20.7548 8.26922 20.8265 8.3819C20.8982 8.49457 20.9984 8.58631 21.1169 8.64783C21.2456 8.69509 21.385 8.70511 21.5191 8.67674C21.6533 8.64836 21.7767 8.58275 21.8752 8.48742C22.4807 7.88653 23.2972 7.54631 24.1502 7.5395C24.5768 7.52613 25.0016 7.60082 25.398 7.75889C25.7944 7.91696 26.154 8.15503 26.4544 8.45825C26.7551 8.75889 26.9937 9.11583 27.1564 9.50869C27.3192 9.90154 27.403 10.3226 27.403 10.7478C27.403 11.1731 27.3192 11.5941 27.1564 11.987C26.9937 12.3798 26.7551 12.7368 26.4544 13.0374C26.362 13.1466 26.2988 13.2775 26.2708 13.4178C26.2427 13.5581 26.2507 13.7031 26.294 13.8395C26.3639 13.9671 26.4645 14.0753 26.5867 14.1542C26.7089 14.2332 26.8489 14.2804 26.994 14.2916C27.847 14.3025 28.6628 14.6422 29.2714 15.2399C29.88 15.8377 30.2344 16.6473 30.2606 17.4999C30.2568 17.9251 30.1693 18.3453 30.0031 18.7367C29.8368 19.128 29.5952 19.4827 29.2918 19.7807C28.9885 20.0786 28.6294 20.3139 28.2352 20.473C27.8409 20.6322 27.4191 20.7121 26.994 20.7083C26.8605 20.7138 26.7309 20.7545 26.6182 20.8262C26.5056 20.8979 26.4138 20.998 26.3523 21.1166C26.3051 21.2453 26.295 21.3847 26.3234 21.5188C26.3518 21.653 26.4174 21.7764 26.5127 21.8749C27.1136 22.4804 27.4538 23.2969 27.4606 24.1499C27.4681 24.5757 27.3907 24.9988 27.233 25.3944C27.0752 25.79 26.8403 26.1502 26.5419 26.4541C26.2413 26.7548 25.8843 26.9934 25.4915 27.1561C25.0986 27.3189 24.6775 27.4027 24.2523 27.4027C23.8271 27.4027 23.406 27.3189 23.0132 27.1561C22.6203 26.9934 22.2634 26.7548 21.9627 26.4541C21.8642 26.3588 21.7408 26.2931 21.6066 26.2648C21.4725 26.2364 21.3331 26.2464 21.2044 26.2937C21.0813 26.3647 20.9789 26.4667 20.9073 26.5894C20.8357 26.7122 20.7973 26.8515 20.7961 26.9937C20.7852 27.8466 20.4455 28.6625 19.8477 29.2711C19.25 29.8797 18.4404 30.2341 17.5877 30.2603ZM13.6356 24.1208C14.0224 24.1162 14.4056 24.1958 14.7586 24.3541C15.2794 24.5712 15.7262 24.9348 16.0445 25.4007C16.3629 25.8666 16.5393 26.4149 16.5523 26.9791C16.5483 27.2604 16.6543 27.5321 16.8477 27.7365C17.0411 27.9408 17.3066 28.0615 17.5877 28.0728C17.8688 28.0506 18.1308 27.9221 18.3205 27.7135C18.5101 27.5049 18.6131 27.2318 18.6086 26.9499C18.612 26.3838 18.7754 25.8301 19.0799 25.3528C19.3843 24.8754 19.8175 24.4938 20.3294 24.252C20.8619 24.0305 21.4482 23.9718 22.0141 24.0834C22.58 24.195 23.1 24.4719 23.5086 24.8791C23.7019 25.0725 23.9642 25.1811 24.2377 25.1811C24.5112 25.1811 24.7735 25.0725 24.9669 24.8791C25.1603 24.6857 25.2689 24.4234 25.2689 24.1499C25.2689 23.8764 25.1603 23.6141 24.9669 23.4207C24.5622 23.0106 24.288 22.4898 24.179 21.924C24.07 21.3582 24.131 20.7727 24.3544 20.2416C24.5844 19.7299 24.9572 19.2953 25.4279 18.9901C25.8987 18.6849 26.4475 18.5219 27.0086 18.5208C27.286 18.5248 27.554 18.4203 27.7556 18.2297C27.9572 18.039 28.0764 17.7772 28.0877 17.4999C28.069 17.2175 27.9415 16.9534 27.7321 16.7631C27.5227 16.5727 27.2477 16.4709 26.9648 16.4791C26.3939 16.4636 25.8388 16.2887 25.3621 15.9743C24.8853 15.66 24.506 15.2185 24.2669 14.6999C24.0486 14.162 23.9917 13.5722 24.1031 13.0024C24.2144 12.4327 24.4892 11.9077 24.894 11.4916C24.9897 11.3958 25.0657 11.2822 25.1175 11.157C25.1693 11.0319 25.196 10.8978 25.196 10.7624C25.196 10.627 25.1693 10.4929 25.1175 10.3678C25.0657 10.2427 24.9897 10.129 24.894 10.0333C24.7982 9.9375 24.6845 9.86154 24.5594 9.80972C24.4343 9.75789 24.3002 9.73122 24.1648 9.73122C24.0294 9.73122 23.8953 9.75789 23.7702 9.80972C23.6451 9.86154 23.5314 9.9375 23.4356 10.0333C23.0256 10.4141 22.5147 10.6689 21.9639 10.7673C21.413 10.8658 20.8455 10.8037 20.329 10.5885C19.8124 10.3733 19.3687 10.014 19.0507 9.55353C18.7328 9.09307 18.554 8.55086 18.5356 7.99159C18.5397 7.71415 18.4352 7.4461 18.2446 7.24453C18.0539 7.04295 17.792 6.92379 17.5148 6.91242C17.2324 6.93117 16.9683 7.05863 16.778 7.26803C16.5876 7.47743 16.4858 7.75246 16.494 8.03534C16.4785 8.60619 16.3036 9.16134 15.9892 9.63808C15.6748 10.1148 15.2334 10.4942 14.7148 10.7333C14.1769 10.9515 13.5871 11.0084 13.0173 10.8971C12.4476 10.7857 11.9226 10.5109 11.5065 10.1062C11.4107 10.0104 11.297 9.93446 11.1719 9.88263C11.0468 9.83081 10.9127 9.80414 10.7773 9.80414C10.6419 9.80414 10.5078 9.83081 10.3827 9.88263C10.2576 9.93446 10.1439 10.0104 10.0481 10.1062C9.95239 10.2019 9.87643 10.3156 9.82461 10.4407C9.77279 10.5658 9.74611 10.6999 9.74611 10.8353C9.74611 10.9708 9.77279 11.1048 9.82461 11.23C9.87643 11.3551 9.95239 11.4687 10.0481 11.5645C10.4504 11.9763 10.7218 12.4979 10.8282 13.0636C10.9346 13.6293 10.8713 14.2139 10.6461 14.7437C10.4289 15.2646 10.0654 15.7113 9.59945 16.0297C9.13352 16.348 8.58523 16.5244 8.02106 16.5374C7.73976 16.5334 7.468 16.6394 7.26369 16.8328C7.05939 17.0262 6.93869 17.2917 6.92731 17.5728C6.94953 17.8539 7.07803 18.1159 7.28665 18.3056C7.49527 18.4952 7.76832 18.5983 8.05023 18.5937C8.61639 18.5971 9.17004 18.7605 9.64738 19.065C10.1247 19.3694 10.5063 19.8026 10.7481 20.3145C10.9697 20.847 11.0283 21.4333 10.9167 21.9992C10.8051 22.5651 10.5282 23.0851 10.1211 23.4937C10.0253 23.5894 9.94935 23.7031 9.89753 23.8282C9.8457 23.9533 9.81903 24.0874 9.81903 24.2228C9.81903 24.3583 9.8457 24.4923 9.89753 24.6175C9.94935 24.7426 10.0253 24.8562 10.1211 24.952C10.2168 25.0478 10.3305 25.1237 10.4556 25.1755C10.5807 25.2274 10.7148 25.254 10.8502 25.254C10.9856 25.254 11.1197 25.2274 11.2448 25.1755C11.37 25.1237 11.4836 25.0478 11.5794 24.952C12.1337 24.4228 12.8693 24.1254 13.6356 24.1208Z" fill="black"/>
</svg>
