<svg width="30" height="30" viewBox="0 0 30 30" fill="none" xmlns="http://www.w3.org/2000/svg">
<path fill-rule="evenodd" clip-rule="evenodd" d="M14.1161 2.86612C14.6043 2.37796 15.3957 2.37796 15.8839 2.86612L18.75 5.73223V5C18.75 4.30964 19.3096 3.75 20 3.75H23.75C24.4404 3.75 25 4.30964 25 5V11.9822L27.1339 14.1161C27.622 14.6043 27.622 15.3957 27.1339 15.8839C26.6457 16.372 25.8543 16.372 25.3661 15.8839L25 15.5178V23.75C25 25.8211 23.3211 27.5 21.25 27.5H8.75C6.67893 27.5 5 25.8211 5 23.75V15.5178L4.63388 15.8839C4.14573 16.372 3.35427 16.372 2.86612 15.8839C2.37796 15.3957 2.37796 14.6043 2.86612 14.1161L5.36567 11.6166C5.36597 11.6163 5.36627 11.616 5.36656 11.6157L14.1161 2.86612ZM7.5 13.0178V23.75C7.5 24.4404 8.05964 25 8.75 25H21.25C21.9404 25 22.5 24.4404 22.5 23.75V13.0178L19.1163 9.63405C19.1162 9.63394 19.1161 9.63383 19.116 9.63372L15 5.51777L7.5 13.0178ZM21.25 8.23223L22.5 9.48223V6.25H21.25V8.23223Z" fill="black"/>
</svg>
