<svg width="32" height="32" viewBox="0 0 32 32" fill="none" xmlns="http://www.w3.org/2000/svg">
<rect width="32" height="32" fill="#FAF6F6"/>
<path fill-rule="evenodd" clip-rule="evenodd" d="M16.0003 5.33341C10.1093 5.33341 5.33366 10.109 5.33366 16.0001C5.33366 21.8911 10.1093 26.6667 16.0003 26.6667C21.8914 26.6667 26.667 21.8911 26.667 16.0001C26.667 10.109 21.8914 5.33341 16.0003 5.33341ZM2.66699 16.0001C2.66699 8.63628 8.63653 2.66675 16.0003 2.66675C23.3641 2.66675 29.3337 8.63628 29.3337 16.0001C29.3337 23.3639 23.3641 29.3334 16.0003 29.3334C8.63653 29.3334 2.66699 23.3639 2.66699 16.0001Z" fill="#0B0B0B"/>
<path d="M9.73343 18.1336C10.9116 18.1336 11.8668 17.1785 11.8668 16.0003C11.8668 14.8221 10.9116 13.8669 9.73343 13.8669C8.55522 13.8669 7.6001 14.8221 7.6001 16.0003C7.6001 17.1785 8.55522 18.1336 9.73343 18.1336Z" fill="#0B0B0B"/>
<path d="M16 18.1336C17.1782 18.1336 18.1334 17.1785 18.1334 16.0003C18.1334 14.8221 17.1782 13.8669 16 13.8669C14.8218 13.8669 13.8667 14.8221 13.8667 16.0003C13.8667 17.1785 14.8218 18.1336 16 18.1336Z" fill="#0B0B0B"/>
<path d="M22.2666 18.1336C23.4448 18.1336 24.4 17.1785 24.4 16.0003C24.4 14.8221 23.4448 13.8669 22.2666 13.8669C21.0884 13.8669 20.1333 14.8221 20.1333 16.0003C20.1333 17.1785 21.0884 18.1336 22.2666 18.1336Z" fill="#0B0B0B"/>
</svg>
