<svg width="45" height="30" viewBox="0 0 45 30" fill="none" xmlns="http://www.w3.org/2000/svg">
<path fill-rule="evenodd" clip-rule="evenodd" d="M8.49365 1.76124C8.49365 1.17619 8.91523 0.701904 9.43527 0.701904H11.8223C12.7626 0.701904 13.5987 1.37507 13.902 2.37637L14.49 4.31743H30.1505C33.4441 4.31743 36.1141 7.32121 36.1141 11.0266V16.8775C36.1141 20.5829 33.4441 23.5867 30.1505 23.5867H20.7545C17.8675 23.5867 15.3951 21.2602 14.8848 18.0635L12.9019 5.64276L12.1194 3.05979C12.0761 2.91675 11.9567 2.82058 11.8223 2.82058H9.43527C8.91523 2.82058 8.49365 2.3463 8.49365 1.76124ZM28.5781 10.2359C29.0981 10.2359 29.5197 10.7102 29.5197 11.2953V16.9451C29.5197 17.5301 29.0981 18.0044 28.5781 18.0044C28.058 18.0044 27.6365 17.5301 27.6365 16.9451V11.2953C27.6365 10.7102 28.058 10.2359 28.5781 10.2359ZM22.6145 16.9451C22.6145 17.5301 22.1929 18.0044 21.6728 18.0044C21.1528 18.0044 20.7312 17.5301 20.7312 16.9451V11.2953C20.7312 10.7102 21.1528 10.2359 21.6728 10.2359C22.1929 10.2359 22.6145 10.7102 22.6145 11.2953V16.9451Z" fill="black"/>
<path fill-rule="evenodd" clip-rule="evenodd" d="M19.1621 27.5384C19.1621 26.3682 20.0053 25.4197 21.0454 25.4197H21.0579C22.098 25.4197 22.9412 26.3682 22.9412 27.5384C22.9412 28.7085 22.098 29.657 21.0579 29.657H21.0454C20.0053 29.657 19.1621 28.7085 19.1621 27.5384Z" fill="black"/>
<path fill-rule="evenodd" clip-rule="evenodd" d="M29.2061 27.5384C29.2061 26.3682 30.0492 25.4197 31.0893 25.4197H31.1019C32.1419 25.4197 32.9851 26.3682 32.9851 27.5384C32.9851 28.7085 32.1419 29.657 31.1019 29.657H31.0893C30.0492 29.657 29.2061 28.7085 29.2061 27.5384Z" fill="black"/>
</svg>
