<svg width="40" height="40" viewBox="0 0 40 40" fill="none" xmlns="http://www.w3.org/2000/svg">
<path d="M31.6667 12.0833H31.2501V8.33328C31.2457 7.56108 30.937 6.82176 30.391 6.27572C29.8449 5.72969 29.1056 5.42099 28.3334 5.41662C28.2012 5.39254 28.0657 5.39254 27.9334 5.41662L8.10008 12.0833H7.91675H7.65008L7.36675 12.1833H7.13341L6.86675 12.3333L6.66675 12.6166L6.43341 12.8166L6.25008 12.9833L6.05008 13.2333C5.99676 13.2811 5.9517 13.3374 5.91675 13.3999C5.85489 13.4963 5.79922 13.5965 5.75008 13.6999L5.65008 13.8833C5.60368 14.003 5.56471 14.1254 5.53341 14.2499C5.54091 14.3108 5.54091 14.3724 5.53341 14.4333C5.51621 14.6218 5.51621 14.8115 5.53341 14.9999V31.6666C5.53691 32.4191 5.82949 33.1415 6.35065 33.6844C6.8718 34.2273 7.58166 34.5491 8.33341 34.5833H31.6667C32.4389 34.5789 33.1783 34.2702 33.7243 33.7242C34.2703 33.1781 34.579 32.4388 34.5834 31.6666V14.9999C34.579 14.2278 34.2703 13.4884 33.7243 12.9424C33.1783 12.3964 32.4389 12.0877 31.6667 12.0833ZM28.4667 7.93328C28.5488 7.96356 28.6198 8.01797 28.6704 8.08937C28.721 8.16077 28.7488 8.2458 28.7501 8.33328V12.0833H16.0334L28.4667 7.93328ZM32.0834 31.6666C32.0834 31.7771 32.0395 31.8831 31.9614 31.9612C31.8832 32.0394 31.7773 32.0833 31.6667 32.0833H8.33341C8.22291 32.0833 8.11693 32.0394 8.03879 31.9612C7.96065 31.8831 7.91675 31.7771 7.91675 31.6666V14.9999C7.91675 14.8894 7.96065 14.7835 8.03879 14.7053C8.11693 14.6272 8.22291 14.5833 8.33341 14.5833H31.6667C31.7773 14.5833 31.8832 14.6272 31.9614 14.7053C32.0395 14.7835 32.0834 14.8894 32.0834 14.9999V31.6666Z" fill="black"/>
<path d="M27.5001 25.4167C28.6507 25.4167 29.5834 24.4839 29.5834 23.3333C29.5834 22.1827 28.6507 21.25 27.5001 21.25C26.3495 21.25 25.4167 22.1827 25.4167 23.3333C25.4167 24.4839 26.3495 25.4167 27.5001 25.4167Z" fill="black"/>
</svg>
