<svg width="50" height="50" viewBox="0 0 50 50" fill="none" xmlns="http://www.w3.org/2000/svg">
<path d="M25 0C38.8071 0 50 11.1929 50 25C50 37.4782 40.8579 47.8208 28.9062 49.6963V32.2266H34.7314L35.8398 25H28.9062V20.3104C28.9062 19.7795 28.9761 19.2523 29.1384 18.765C29.5049 17.6642 30.3431 16.7673 31.9137 16.4929C32.2374 16.4364 32.5922 16.4062 32.9804 16.4062H36.1328V10.2539C36.1328 10.2539 33.2719 9.76562 30.5366 9.76562C24.8261 9.76562 21.0938 13.2266 21.0938 19.4922V25H14.7461V32.2266H21.0938V49.6963C9.14219 47.8208 0 37.4782 0 25C0 11.1929 11.1929 0 25 0Z" fill="#F5FAFF"/>
</svg>
